<?xml version="1.0" encoding="UTF-8" standalone="no"?>
<svg width="208px" height="36px" viewBox="0 0 208 36" version="1.1" xmlns="http://www.w3.org/2000/svg" xmlns:xlink="http://www.w3.org/1999/xlink">
    <!-- Generator: Sketch 40.1 (33804) - http://www.bohemiancoding.com/sketch -->
    <title>Slice 1</title>
    <desc>Created with Sketch.</desc>
    <defs></defs>
    <g id="Page-1" stroke="none" stroke-width="1" fill="none" fill-rule="evenodd">
        <g id="Group" fill="#000000">
            <path d="M15.4453125,15.7734375 C17.6328234,15.7734375 19.3632749,15.3359419 20.6367188,14.4609375 C21.9101626,13.5859331 22.546875,12.0078239 22.546875,9.7265625 C22.546875,7.27342523 21.6562589,5.60156695 19.875,4.7109375 C18.9218702,4.24218516 17.6484455,4.0078125 16.0546875,4.0078125 L4.6640625,4.0078125 L4.6640625,15.7734375 L15.4453125,15.7734375 Z M0,0 L15.9375,0 C18.5625131,0 20.726554,0.382808672 22.4296875,1.1484375 C25.6640787,2.61719484 27.28125,5.32810523 27.28125,9.28125 C27.28125,11.3437603 26.855473,13.0312434 26.0039062,14.34375 C25.1523395,15.6562566 23.9609452,16.7109335 22.4296875,17.5078125 C23.7734442,18.0546902 24.7851529,18.773433 25.4648438,19.6640625 C26.1445346,20.554692 26.5234371,21.99999 26.6015625,24 L26.765625,28.6171875 C26.8125002,29.9296941 26.9218741,30.9062468 27.09375,31.546875 C27.3750014,32.6406305 27.8749964,33.3437484 28.59375,33.65625 L28.59375,34.4296875 L22.875,34.4296875 C22.7187492,34.132811 22.5937505,33.7500023 22.5,33.28125 C22.4062495,32.8124977 22.3281253,31.9062567 22.265625,30.5625 L21.984375,24.8203125 C21.8749995,22.5703012 21.0390703,21.0625038 19.4765625,20.296875 C18.585933,19.8749979 17.1875095,19.6640625 15.28125,19.6640625 L4.6640625,19.6640625 L4.6640625,34.4296875 L0,34.4296875 L0,0 Z M38.109375,30.6328125 C39.0000045,31.335941 40.0546814,31.6875 41.2734375,31.6875 C42.7578199,31.6875 44.1953055,31.3437534 45.5859375,30.65625 C47.9296992,29.5156193 49.1015625,27.6484505 49.1015625,25.0546875 L49.1015625,21.65625 C48.5859349,21.9843766 47.9218791,22.2578114 47.109375,22.4765625 C46.2968709,22.6953136 45.5000039,22.851562 44.71875,22.9453125 L42.1640625,23.2734375 C40.6328048,23.4765635 39.4843788,23.7968728 38.71875,24.234375 C37.4218685,24.9687537 36.7734375,26.140617 36.7734375,27.75 C36.7734375,28.9687561 37.2187455,29.929684 38.109375,30.6328125 L38.109375,30.6328125 Z M46.9921875,19.21875 C47.9609423,19.0937494 48.6093734,18.6875034 48.9375,18 C49.1250009,17.6249981 49.21875,17.085941 49.21875,16.3828125 C49.21875,14.9453053 48.7070364,13.902347 47.6835938,13.2539062 C46.6601511,12.6054655 45.195322,12.28125 43.2890625,12.28125 C41.0859265,12.28125 39.5234421,12.8749941 38.6015625,14.0625 C38.0859349,14.7187533 37.7500008,15.695306 37.59375,16.9921875 L33.65625,16.9921875 C33.7343754,13.898422 34.7382716,11.7460998 36.6679688,10.5351562 C38.5976659,9.3242127 40.8359248,8.71875 43.3828125,8.71875 C46.3359523,8.71875 48.7343658,9.28124437 50.578125,10.40625 C52.4062591,11.5312556 53.3203125,13.2812381 53.3203125,15.65625 L53.3203125,30.1171875 C53.3203125,30.5546897 53.4101554,30.9062487 53.5898438,31.171875 C53.7695321,31.4375013 54.1484346,31.5703125 54.7265625,31.5703125 C54.9140634,31.5703125 55.1249988,31.5585939 55.359375,31.5351562 C55.5937512,31.5117186 55.8437487,31.4765627 56.109375,31.4296875 L56.109375,34.546875 C55.4531217,34.7343759 54.9531267,34.8515623 54.609375,34.8984375 C54.2656233,34.9453127 53.796878,34.96875 53.203125,34.96875 C51.7499927,34.96875 50.6953158,34.4531302 50.0390625,33.421875 C49.6953108,32.8749973 49.4531257,32.1015675 49.3125,31.1015625 C48.4531207,32.2265681 47.218758,33.2031209 45.609375,34.03125 C43.999992,34.8593791 42.2265722,35.2734375 40.2890625,35.2734375 C37.9609259,35.2734375 36.0586011,34.5664133 34.5820312,33.1523438 C33.1054614,31.7382742 32.3671875,29.9687606 32.3671875,27.84375 C32.3671875,25.5156134 33.0937427,23.7109439 34.546875,22.4296875 C36.0000073,21.1484311 37.9062382,20.3593765 40.265625,20.0625 L46.9921875,19.21875 Z M61.078125,2.3203125 L65.34375,2.3203125 L65.34375,9.328125 L69.3515625,9.328125 L69.3515625,12.7734375 L65.34375,12.7734375 L65.34375,29.15625 C65.34375,30.0312544 65.640622,30.617186 66.234375,30.9140625 C66.5625016,31.0859384 67.1093712,31.171875 67.875,31.171875 C68.078126,31.171875 68.2968738,31.1679688 68.53125,31.1601562 C68.7656262,31.1523437 69.0390609,31.1328127 69.3515625,31.1015625 L69.3515625,34.4296875 C68.8671851,34.5703132 68.3632839,34.6718747 67.8398438,34.734375 C67.3164036,34.7968753 66.750003,34.828125 66.140625,34.828125 C64.1718652,34.828125 62.835941,34.3242238 62.1328125,33.3164062 C61.429684,32.3085887 61.078125,31.000008 61.078125,29.390625 L61.078125,12.7734375 L57.6796875,12.7734375 L57.6796875,9.328125 L61.078125,9.328125 L61.078125,2.3203125 Z M76.078125,26.5546875 C76.2031256,27.9609445 76.5546846,29.0390587 77.1328125,29.7890625 C78.1953178,31.1484443 80.0390494,31.828125 82.6640625,31.828125 C84.2265703,31.828125 85.6015566,31.4882846 86.7890625,30.8085938 C87.9765684,30.1289029 88.5703125,29.0781321 88.5703125,27.65625 C88.5703125,26.5781196 88.0937548,25.7578153 87.140625,25.1953125 C86.531247,24.8515608 85.328134,24.4531273 83.53125,24 L80.1796875,23.15625 C78.0390518,22.6249973 76.4609426,22.0312533 75.4453125,21.375 C73.6328034,20.2343693 72.7265625,18.6562601 72.7265625,16.640625 C72.7265625,14.2656131 73.5820227,12.3437573 75.2929688,10.875 C77.0039148,9.40624266 79.304673,8.671875 82.1953125,8.671875 C85.9765814,8.671875 88.7031166,9.78123891 90.375,12 C91.4218802,13.406257 91.9296877,14.9218669 91.8984375,16.546875 L87.9140625,16.546875 C87.8359371,15.5937452 87.500003,14.7265664 86.90625,13.9453125 C85.9374952,12.835932 84.2578245,12.28125 81.8671875,12.28125 C80.2734295,12.28125 79.0664104,12.5859345 78.2460938,13.1953125 C77.4257771,13.8046905 77.015625,14.60937 77.015625,15.609375 C77.015625,16.7031305 77.5546821,17.5781217 78.6328125,18.234375 C79.2578156,18.625002 80.1796814,18.9687485 81.3984375,19.265625 L84.1875,19.9453125 C87.2187652,20.6796912 89.2499948,21.3906216 90.28125,22.078125 C91.9218832,23.1562554 92.7421875,24.8515509 92.7421875,27.1640625 C92.7421875,29.3984487 91.8945397,31.3281169 90.1992188,32.953125 C88.5038978,34.5781331 85.9218923,35.390625 82.453125,35.390625 C78.7187313,35.390625 76.0742265,34.5429772 74.5195312,32.8476562 C72.964836,31.1523353 72.132813,29.0547 72.0234375,26.5546875 L76.078125,26.5546875 Z M102.140625,30.6328125 C103.031254,31.335941 104.085931,31.6875 105.304688,31.6875 C106.78907,31.6875 108.226556,31.3437534 109.617188,30.65625 C111.960949,29.5156193 113.132812,27.6484505 113.132812,25.0546875 L113.132812,21.65625 C112.617185,21.9843766 111.953129,22.2578114 111.140625,22.4765625 C110.328121,22.6953136 109.531254,22.851562 108.75,22.9453125 L106.195312,23.2734375 C104.664055,23.4765635 103.515629,23.7968728 102.75,24.234375 C101.453119,24.9687537 100.804688,26.140617 100.804688,27.75 C100.804688,28.9687561 101.249996,29.929684 102.140625,30.6328125 L102.140625,30.6328125 Z M111.023438,19.21875 C111.992192,19.0937494 112.640623,18.6875034 112.96875,18 C113.156251,17.6249981 113.25,17.085941 113.25,16.3828125 C113.25,14.9453053 112.738286,13.902347 111.714844,13.2539062 C110.691401,12.6054655 109.226572,12.28125 107.320312,12.28125 C105.117176,12.28125 103.554692,12.8749941 102.632812,14.0625 C102.117185,14.7187533 101.781251,15.695306 101.625,16.9921875 L97.6875,16.9921875 C97.7656254,13.898422 98.7695216,11.7460998 100.699219,10.5351562 C102.628916,9.3242127 104.867175,8.71875 107.414062,8.71875 C110.367202,8.71875 112.765616,9.28124437 114.609375,10.40625 C116.437509,11.5312556 117.351562,13.2812381 117.351562,15.65625 L117.351562,30.1171875 C117.351562,30.5546897 117.441405,30.9062487 117.621094,31.171875 C117.800782,31.4375013 118.179685,31.5703125 118.757812,31.5703125 C118.945313,31.5703125 119.156249,31.5585939 119.390625,31.5351562 C119.625001,31.5117186 119.874999,31.4765627 120.140625,31.4296875 L120.140625,34.546875 C119.484372,34.7343759 118.984377,34.8515623 118.640625,34.8984375 C118.296873,34.9453127 117.828128,34.96875 117.234375,34.96875 C115.781243,34.96875 114.726566,34.4531302 114.070312,33.421875 C113.726561,32.8749973 113.484376,32.1015675 113.34375,31.1015625 C112.484371,32.2265681 111.250008,33.2031209 109.640625,34.03125 C108.031242,34.8593791 106.257822,35.2734375 104.320312,35.2734375 C101.992176,35.2734375 100.089851,34.5664133 98.6132812,33.1523438 C97.1367114,31.7382742 96.3984375,29.9687606 96.3984375,27.84375 C96.3984375,25.5156134 97.1249927,23.7109439 98.578125,22.4296875 C100.031257,21.1484311 101.937488,20.3593765 104.296875,20.0625 L111.023438,19.21875 Z M126.773438,26.5546875 C126.898438,27.9609445 127.249997,29.0390587 127.828125,29.7890625 C128.89063,31.1484443 130.734362,31.828125 133.359375,31.828125 C134.921883,31.828125 136.296869,31.4882846 137.484375,30.8085938 C138.671881,30.1289029 139.265625,29.0781321 139.265625,27.65625 C139.265625,26.5781196 138.789067,25.7578153 137.835938,25.1953125 C137.226559,24.8515608 136.023446,24.4531273 134.226562,24 L130.875,23.15625 C128.734364,22.6249973 127.156255,22.0312533 126.140625,21.375 C124.328116,20.2343693 123.421875,18.6562601 123.421875,16.640625 C123.421875,14.2656131 124.277335,12.3437573 125.988281,10.875 C127.699227,9.40624266 129.999986,8.671875 132.890625,8.671875 C136.671894,8.671875 139.398429,9.78123891 141.070312,12 C142.117193,13.406257 142.625,14.9218669 142.59375,16.546875 L138.609375,16.546875 C138.53125,15.5937452 138.195315,14.7265664 137.601562,13.9453125 C136.632808,12.835932 134.953137,12.28125 132.5625,12.28125 C130.968742,12.28125 129.761723,12.5859345 128.941406,13.1953125 C128.12109,13.8046905 127.710938,14.60937 127.710938,15.609375 C127.710938,16.7031305 128.249995,17.5781217 129.328125,18.234375 C129.953128,18.625002 130.874994,18.9687485 132.09375,19.265625 L134.882812,19.9453125 C137.914078,20.6796912 139.945307,21.3906216 140.976562,22.078125 C142.617196,23.1562554 143.4375,24.8515509 143.4375,27.1640625 C143.4375,29.3984487 142.589852,31.3281169 140.894531,32.953125 C139.19921,34.5781331 136.617205,35.390625 133.148438,35.390625 C129.414044,35.390625 126.769539,34.5429772 125.214844,32.8476562 C123.660148,31.1523353 122.828126,29.0547 122.71875,26.5546875 L126.773438,26.5546875 Z M149.109375,2.3203125 L153.375,2.3203125 L153.375,9.328125 L157.382812,9.328125 L157.382812,12.7734375 L153.375,12.7734375 L153.375,29.15625 C153.375,30.0312544 153.671872,30.617186 154.265625,30.9140625 C154.593752,31.0859384 155.140621,31.171875 155.90625,31.171875 C156.109376,31.171875 156.328124,31.1679688 156.5625,31.1601562 C156.796876,31.1523437 157.070311,31.1328127 157.382812,31.1015625 L157.382812,34.4296875 C156.898435,34.5703132 156.394534,34.6718747 155.871094,34.734375 C155.347654,34.7968753 154.781253,34.828125 154.171875,34.828125 C152.203115,34.828125 150.867191,34.3242238 150.164062,33.3164062 C149.460934,32.3085887 149.109375,31.000008 149.109375,29.390625 L149.109375,12.7734375 L145.710938,12.7734375 L145.710938,9.328125 L149.109375,9.328125 L149.109375,2.3203125 Z M165.820312,9.328125 L165.820312,25.9921875 C165.820312,27.2734439 166.023435,28.3203084 166.429688,29.1328125 C167.179691,30.63282 168.578115,31.3828125 170.625,31.3828125 C173.562515,31.3828125 175.562495,30.0703256 176.625,27.4453125 C177.203128,26.0390555 177.492188,24.1093873 177.492188,21.65625 L177.492188,9.328125 L181.710938,9.328125 L181.710938,34.4296875 L177.726562,34.4296875 L177.773438,30.7265625 C177.22656,31.6796923 176.546879,32.4843717 175.734375,33.140625 C174.124992,34.4531316 172.171886,35.109375 169.875,35.109375 C166.296857,35.109375 163.859381,33.9140745 162.5625,31.5234375 C161.859371,30.2421811 161.507812,28.5312607 161.507812,26.390625 L161.507812,9.328125 L165.820312,9.328125 Z M190.804688,26.5546875 C190.929688,27.9609445 191.281247,29.0390587 191.859375,29.7890625 C192.92188,31.1484443 194.765612,31.828125 197.390625,31.828125 C198.953133,31.828125 200.328119,31.4882846 201.515625,30.8085938 C202.703131,30.1289029 203.296875,29.0781321 203.296875,27.65625 C203.296875,26.5781196 202.820317,25.7578153 201.867188,25.1953125 C201.257809,24.8515608 200.054696,24.4531273 198.257812,24 L194.90625,23.15625 C192.765614,22.6249973 191.187505,22.0312533 190.171875,21.375 C188.359366,20.2343693 187.453125,18.6562601 187.453125,16.640625 C187.453125,14.2656131 188.308585,12.3437573 190.019531,10.875 C191.730477,9.40624266 194.031236,8.671875 196.921875,8.671875 C200.703144,8.671875 203.429679,9.78123891 205.101562,12 C206.148443,13.406257 206.65625,14.9218669 206.625,16.546875 L202.640625,16.546875 C202.5625,15.5937452 202.226565,14.7265664 201.632812,13.9453125 C200.664058,12.835932 198.984387,12.28125 196.59375,12.28125 C194.999992,12.28125 193.792973,12.5859345 192.972656,13.1953125 C192.15234,13.8046905 191.742188,14.60937 191.742188,15.609375 C191.742188,16.7031305 192.281245,17.5781217 193.359375,18.234375 C193.984378,18.625002 194.906244,18.9687485 196.125,19.265625 L198.914062,19.9453125 C201.945328,20.6796912 203.976557,21.3906216 205.007812,22.078125 C206.648446,23.1562554 207.46875,24.8515509 207.46875,27.1640625 C207.46875,29.3984487 206.621102,31.3281169 204.925781,32.953125 C203.23046,34.5781331 200.648455,35.390625 197.179688,35.390625 C193.445294,35.390625 190.800789,34.5429772 189.246094,32.8476562 C187.691398,31.1523353 186.859376,29.0547 186.75,26.5546875 L190.804688,26.5546875 Z" id="Ratsastus"></path>
        </g>
    </g>
</svg>